<svg xmlns="http://www.w3.org/2000/svg" viewBox="0 0 1600 410" role="img" aria-label="AHDO — ASEAN Human Development Organisation">
  <defs>
    <linearGradient id="ahdoWord" x1="0" y1="0" x2="1" y2="0">
      <stop offset="0" stop-color="#0f4c96"/>
      <stop offset="1" stop-color="#1f97c8"/>
    </linearGradient>
  </defs>
  <g transform="translate(8,80.0) scale(1.25)">
    <g>
      <circle cx="100.0" cy="100.0" r="93.0" fill="none" stroke="#1c4a8f" stroke-width="5"/>
      <circle cx="100.0" cy="100.0" r="88.50" fill="none" stroke="#ffffff" stroke-width="4"/>
      <circle cx="100.0" cy="100.0" r="82.0" fill="#e01a24"/>
      <path d="M 52.00 38.00 Q 94.50 65.00 89.00 92.00 Q 94.50 121.00 59.00 150.00" fill="none" stroke="#f9d616" stroke-width="4.4" stroke-linecap="round"/>
      <path d="M 62.67 38.00 Q 95.72 65.00 91.44 92.00 Q 95.72 121.00 68.11 150.00" fill="none" stroke="#f9d616" stroke-width="4.4" stroke-linecap="round"/>
      <path d="M 73.33 38.00 Q 96.94 65.00 93.89 92.00 Q 96.94 121.00 77.22 150.00" fill="none" stroke="#f9d616" stroke-width="4.4" stroke-linecap="round"/>
      <path d="M 84.00 38.00 Q 98.17 65.00 96.33 92.00 Q 98.17 121.00 86.33 150.00" fill="none" stroke="#f9d616" stroke-width="4.4" stroke-linecap="round"/>
      <path d="M 94.67 38.00 Q 99.39 65.00 98.78 92.00 Q 99.39 121.00 95.44 150.00" fill="none" stroke="#f9d616" stroke-width="4.4" stroke-linecap="round"/>
      <path d="M 105.33 38.00 Q 100.61 65.00 101.22 92.00 Q 100.61 121.00 104.56 150.00" fill="none" stroke="#f9d616" stroke-width="4.4" stroke-linecap="round"/>
      <path d="M 116.00 38.00 Q 101.83 65.00 103.67 92.00 Q 101.83 121.00 113.67 150.00" fill="none" stroke="#f9d616" stroke-width="4.4" stroke-linecap="round"/>
      <path d="M 126.67 38.00 Q 103.06 65.00 106.11 92.00 Q 103.06 121.00 122.78 150.00" fill="none" stroke="#f9d616" stroke-width="4.4" stroke-linecap="round"/>
      <path d="M 137.33 38.00 Q 104.28 65.00 108.56 92.00 Q 104.28 121.00 131.89 150.00" fill="none" stroke="#f9d616" stroke-width="4.4" stroke-linecap="round"/>
      <path d="M 148.00 38.00 Q 105.50 65.00 111.00 92.00 Q 105.50 121.00 141.00 150.00" fill="none" stroke="#f9d616" stroke-width="4.4" stroke-linecap="round"/>
      <rect x="85.00" y="87.00" width="30.00" height="10" rx="2" fill="#f9d616"/>
      <text x="100.0" y="176" text-anchor="middle"
            font-family="'Trebuchet MS', Arial, sans-serif" font-size="30"
            font-weight="700" fill="#1c4a8f">asean</text>
    </g>
  </g>
  <text x="290" y="248" textLength="1280" lengthAdjust="spacingAndGlyphs"
        font-family="'Trebuchet MS', Calibri, Arial, sans-serif"
        font-size="250" font-weight="700"
        fill="url(#ahdoWord)">AHDO</text>
  <text x="292" y="340" textLength="1274" lengthAdjust="spacingAndGlyphs"
        font-family="Georgia, 'Times New Roman', serif"
        font-size="64" font-weight="400"
        fill="#3f7a4e">ASEAN Human Development Organisation</text>
</svg>